<?xml version="1.0" encoding="UTF-8" standalone="no"?>
<!-- Created with Inkscape (http://www.inkscape.org/) -->

<svg
   width="234.42227mm"
   height="181.45622mm"
   viewBox="0 0 234.42227 181.45622"
   version="1.1"
   id="svg1"
   xml:space="preserve"
   xmlns="http://www.w3.org/2000/svg"
   xmlns:svg="http://www.w3.org/2000/svg"><defs
     id="defs1" /><g
     id="layer1"
     transform="translate(203.4605,160.10688)"><g
       id="g1"
       style="fill:#ffffff"><path
         style="fill:#ffffff;stroke:none"
         d="m -127,-145.52082 c -8.38267,9.94118 -0.38933,23.68464 2.91406,29.17745 -10.83872,7.89972 -25.27924,11.65841 -36.07606,20.577768 -22.8603,16.527324 -42.46918,41.663196 -43.29849,70.894772 6.84731,13.643805 13.10487,-12.753585 19.75814,-16.846045 17.95362,-20.769366 43.42451,-36.224765 71.03047,-38.832686 9.62636,1.255538 33.407769,-1.924682 22.008047,14.244657 -4.399107,12.121036 28.346804,148.413113 121.625608,55.109872 -0.334265,-36.505783 -10.447671,-74.316725 -33.7812279,-102.978658 -20.7826701,-27.22082 -59.7590081,-36.20133 -91.1137121,-23.56502 -7.338285,1.62164 -27.924725,17.92635 -18.792185,0.0465 14.538857,-16.637 -16.5247,-32.39136 -23.89363,-14.49593 0.42157,4.47229 5.88481,6.17984 9.61898,6.66731 z m 8.20209,21.96041 c -18.51939,-4.18404 11.17573,-30.24915 -11.64167,-28.31041 11.81508,-9.33383 21.38059,6.90637 10.9612,16.06822 -2.48613,4.00927 -1.0229,8.30317 0.68047,12.24219 z m 94.985409,-2.38125 c -8.964778,0.69871 -19.179339,-0.12335 -28.559896,0.52114 -7.171433,-2.92011 -12.327653,-10.23173 -20.652601,-11.63364 16.811141,-3.40426 34.946865,2.11191 49.212497,11.1125 z m -42.068748,102.129164 c -18.21437,0.668239 -35.503681,-26.977865 -29.88533,-42.299982 4.092084,-6.828092 13.05261,-10.041331 15.694757,-14.554101 9.245322,0.597024 26.09325,-20.778511 13.674167,-22.079221 -1.646583,16.316437 -20.259797,20.782516 -33.865815,17.643986 -14.84887,3.012572 0.13367,-15.278366 -13.34507,-19.206146 -16.86455,-10.86203 10.59424,-25.33122 21.110534,-27.13179 16.847232,-5.11119 36.87136,4.90678 40.193353,22.76667 3.667625,13.586857 -3.220501,26.528388 -10.32438,37.60124 -5.655903,13.386759 -2.423612,28.30349 -3.252216,42.447605 z M -103.1875,-109.00833 c 6.870953,9.850882 18.511434,0.93877 20.198555,-4.76626 5.399718,4.92062 23.627081,-1.86976 10.20769,-4.5547 -12.842851,-2.64711 -32.974775,-6.52667 -36.515235,11.01446 1.45362,3.41283 5.62913,1.10362 6.10899,-1.6935 z m 96.3083317,-1.05833 c -13.3376687,-0.1722 -26.7069277,0.35003 -40.0241377,-0.27191 -2.662318,-6.27886 -6.821119,-13.47196 4.644959,-10.0084 13.049266,0.99186 28.398665,-4.8122 35.3791787,10.28029 M -93.92708,-116.0659 c 13.799257,6.55709 -13.58353,6.97494 0,0 z m -30.69167,7.85132 c 3.38284,6.34511 18.21245,12.469194 2.86496,12.239115 -30.79618,6.582967 -59.35542,26.276448 -73.24412,54.965053 7.88448,-28.482042 32.05308,-49.719958 58.06247,-62.154428 3.90434,-2.09541 7.87764,-4.34538 12.31669,-5.04974 z M 4.2333311,-94.191659 c -16.8451381,0.08819 -33.6902761,0.176389 -50.5354141,0.264583 1.062502,-3.899931 -2.542639,-12.585654 4.276402,-10.583334 13.195785,0.16488 26.416413,-0.33908 39.5956272,0.27192 2.62748818,3.07304 4.4941735,6.655282 6.6633849,10.046831 z M -131.23333,-102.52112 c -20.40417,8.910911 14.25317,7.23775 0,0 z m 19.31458,10.71071 c -7.77238,10.683198 -25.61182,7.947438 -36.64649,15.888827 -11.52966,3.505493 -26.76098,18.981057 -31.669,21.383652 16.24536,-21.149233 41.98409,-34.47633 68.31549,-37.272479 z M 25.399997,6.3500019 C 13.29061,9.7602752 18.633958,-1.5484165 17.34939,-9.5249972 14.553838,-31.118235 -8.5933582,-40.558765 -27.823399,-42.244551 c -14.322246,-6.267187 -14.326762,7.839908 -12.922434,17.689988 V 6.3500019 c -33.568865,3.4471254 -20.045152,-44.3773719 -19.20394,-68.5213879 4.372762,-8.787854 7.700518,-24.893274 17.633668,-26.464024 16.506629,0.176757 33.1136982,-0.356863 49.5558093,0.271915 C 22.871607,-59.608642 26.133096,-25.920253 25.399997,6.3500019 Z M -94.456247,-48.418745 C 0,0 0,0 -94.456247,-48.418745 Z m 72.49583,12.435416 c -1.13038,8.514521 -16.713423,23.904154 -13.229166,7.578165 -0.02206,-4.952269 -1.620226,-11.681085 5.576539,-8.49648 z m 14.2874988,4.233333 C -12.491004,-18.86751 -22.507083,-7.6664829 -35.189583,-2.1166643 -39.613394,-17.202481 -19.053717,-20.565722 -16.30004,-34.232306 c 3.078284,-0.556802 5.929675,1.311496 8.6271218,2.48231 z M -35.283214,5.9549073 c 8.445079,-8.2141024 22.304245,-14.3051968 27.8973055,-26.6653253 5.4007728,-19.397535 21.8972095,5.936254 19.5032515,16.8013888 -37.864085,6.4285687 -53.680634,46.8356792 -47.400557,9.8639365 z"
         id="path1" /></g></g></svg>
