<svg width="512" height="512" viewBox="0 0 512 512" fill="none" xmlns="http://www.w3.org/2000/svg">
<rect width="512" height="512" fill="#F5F5F5"/>
<g clip-path="url(#clip0_0_1)">
<rect width="512" height="512" fill="white"/>
<rect width="512" height="512" rx="50" fill="#84A98C"/>
<path d="M192.746 103.986C179.837 123.742 192.146 151.053 197.233 161.969C180.542 177.668 158.304 185.137 141.678 202.862C106.474 235.706 76.2771 285.657 75 343.747C85.5446 370.861 95.1809 318.403 105.427 310.27C133.074 268.996 172.299 238.283 214.81 233.1C229.635 235.595 277.025 243.171 261.737 264.333C270.265 289.152 292.355 556.341 436 370.925C435.485 298.379 419.911 223.239 383.978 166.281C351.974 112.186 291.952 94.3396 243.667 119.451C232.367 122.674 200.664 155.075 214.728 119.543C237.117 86.4816 189.281 55.1738 177.933 90.7365C178.582 99.624 186.995 103.017 192.746 103.986ZM205.377 147.627C176.858 139.312 222.587 87.5143 187.449 91.3671C205.644 72.8185 220.374 105.092 204.329 123.299C200.5 131.266 202.754 139.799 205.377 147.627ZM351.65 142.895C337.845 144.283 322.115 142.65 307.669 143.93C296.625 138.127 288.685 123.597 275.865 120.811C301.753 114.046 329.682 125.008 351.65 142.895ZM286.866 345.851C259.383 327.432 211.222 333.195 240.844 261.79C247.146 248.221 256.977 231.596 265.013 232.867C285.485 243.562 305.196 191.575 286.071 188.991C283.535 221.415 254.872 230.291 233.919 224.054C211.052 230.04 234.125 193.692 213.368 185.886C187.397 164.301 229.683 135.547 245.877 131.969C271.821 121.811 302.658 141.72 307.773 177.212C313.421 204.212 302.814 229.93 291.874 251.935C283.164 278.537 288.142 308.181 286.866 336.288V345.851ZM229.416 176.545C239.997 196.122 257.923 178.411 260.521 167.074C268.836 176.852 296.906 163.358 276.24 158.022C256.463 152.762 225.461 145.052 220.008 179.911C222.247 186.693 228.677 182.104 229.416 176.545ZM377.727 174.442C357.187 174.1 336.599 175.138 316.091 173.902C311.991 161.424 306.154 155.906 323.244 154.013C343.34 155.984 366.977 144.45 377.727 174.442ZM243.677 162.52C264.927 175.551 222.759 176.381 243.677 162.52ZM196.413 178.123C201.622 190.732 224.459 202.902 200.825 202.445C153.4 215.527 109.42 254.663 88.032 311.674C100.174 255.073 137.392 212.868 177.446 188.158C183.458 183.994 189.577 179.523 196.413 178.123ZM317.017 206.516C388.32 393.172 388.32 393.172 317.017 206.516ZM215.97 210.722C204.001 231.952 176.529 226.515 159.536 242.297C141.781 249.263 118.326 280.017 110.767 284.792C135.785 242.763 175.421 216.279 215.97 210.722ZM415.038 374.243C409.491 318.96 317.272 269.237 325.573 344.376V405.791C273.879 412.641 294.705 317.602 296 269.622C302.734 252.158 307.859 220.153 323.155 217.031C348.575 217.383 374.149 216.322 399.469 217.572C423.541 274.715 417.016 390.095 415.038 374.243Z" fill="#2F3E46"/>
</g>
<defs>
<clipPath id="clip0_0_1">
<rect width="512" height="512" fill="white"/>
</clipPath>
</defs>
</svg>
